<svg id="Layer_1" data-name="Layer 1" xmlns="http://www.w3.org/2000/svg" viewBox="0 0 20.91 33.47"><defs><style>.cls-1{fill:#fff;}</style></defs><title>Home Page Scroll Icon-01</title><path class="cls-1" d="M.05,16.43c0-2.19-.13-4.39,0-6.58a10,10,0,0,1,6.37-9A9.82,9.82,0,0,1,13.91.63a10.24,10.24,0,0,1,6.27,6,10.24,10.24,0,0,1,.72,3.91c0,4.16,0,8.32,0,12.48a10,10,0,0,1-4.58,8.54,10,10,0,0,1-10.61.65A10,10,0,0,1,.24,25,10.57,10.57,0,0,1,0,23c0-2.2,0-4.39,0-6.59Zm1.42.28h0c0,2.1,0,4.21,0,6.32A9,9,0,0,0,10.17,32a8.66,8.66,0,0,0,6.72-2.71,8.94,8.94,0,0,0,2.57-6.55c0-4,0-8,0-12a9,9,0,0,0-1-4.28,8.77,8.77,0,0,0-6-4.66,8.55,8.55,0,0,0-7.3,1.49,8.8,8.8,0,0,0-3.72,7.43Z"/><path class="cls-1" d="M11.89,9.56c0,.56,0,1.12,0,1.68a1.43,1.43,0,1,1-2.86,0C9,10.11,9,9,9,7.8a1.43,1.43,0,1,1,2.86,0C11.9,8.4,11.89,9,11.89,9.56Z"/></svg>